<svg data-pixel-component="MpIcon" data-icon-name="dashboard" viewBox="0 0 24 24" role="presentation" fill="none" class="css-ibrxub"><path d="M9.83998 9.94999L10.5373 9.67395L10.5363 9.67144L9.83998 9.94999ZM10.98 12.83L10.2826 13.106L10.2836 13.1085L10.98 12.83ZM11.91 12.83L12.6063 13.1085L12.6077 13.105L11.91 12.83ZM14.2 7.01999L14.8977 7.29501L14.898 7.29423L14.2 7.01999ZM15.11 6.96999L15.7732 6.61984L15.7731 6.61965L15.11 6.96999ZM16.15 8.93999L16.8139 8.59114L16.8132 8.58984L16.15 8.93999ZM17.92 10.01V10.76L17.9218 10.76L17.92 10.01ZM22.0018 10.75C22.4161 10.749 22.751 10.4124 22.75 9.99816C22.749 9.58395 22.4124 9.24899 21.9982 9.25L22.0018 10.75ZM2 7.92999H1.25V9.42999H2V7.92999ZM12.75 17C12.75 16.5858 12.4142 16.25 12 16.25C11.5858 16.25 11.25 16.5858 11.25 17H12.75ZM11.25 22C11.25 22.4142 11.5858 22.75 12 22.75C12.4142 22.75 12.75 22.4142 12.75 22H11.25ZM8.00001 21.25C7.5858 21.25 7.25001 21.5858 7.25001 22C7.25001 22.4142 7.5858 22.75 8.00001 22.75V21.25ZM16 22.75C16.4142 22.75 16.75 22.4142 16.75 22C16.75 21.5858 16.4142 21.25 16 21.25V22.75ZM8.00001 2.75H16V1.25H8.00001V2.75ZM21.25 8V11H22.75V8H21.25ZM16 16.25H8.00001V17.75H16V16.25ZM2.75001 11V8H1.25001V11H2.75001ZM8.00001 16.25C6.5646 16.25 5.56348 16.2484 4.80813 16.1469C4.07436 16.0482 3.68578 15.8678 3.40902 15.591L2.34836 16.6517C2.95028 17.2536 3.70815 17.5125 4.60826 17.6335C5.48679 17.7516 6.607 17.75 8.00001 17.75V16.25ZM1.25001 11C1.25001 12.393 1.24842 13.5132 1.36653 14.3918C1.48755 15.2919 1.74644 16.0497 2.34836 16.6517L3.40902 15.591C3.13226 15.3142 2.95181 14.9257 2.85316 14.1919C2.7516 13.4365 2.75001 12.4354 2.75001 11H1.25001ZM21.25 11C21.25 12.4354 21.2484 13.4365 21.1469 14.1919C21.0482 14.9257 20.8678 15.3142 20.591 15.591L21.6517 16.6517C22.2536 16.0497 22.5125 15.2919 22.6335 14.3918C22.7516 13.5132 22.75 12.393 22.75 11H21.25ZM16 17.75C17.393 17.75 18.5132 17.7516 19.3918 17.6335C20.2919 17.5125 21.0497 17.2536 21.6517 16.6517L20.591 15.591C20.3142 15.8678 19.9257 16.0482 19.1919 16.1469C18.4365 16.2484 17.4354 16.25 16 16.25V17.75ZM16 2.75C17.4354 2.75 18.4365 2.75159 19.1919 2.85315C19.9257 2.9518 20.3142 3.13225 20.591 3.40901L21.6517 2.34835C21.0497 1.74643 20.2919 1.48754 19.3918 1.36652C18.5132 1.24841 17.393 1.25 16 1.25V2.75ZM22.75 8C22.75 6.60699 22.7516 5.48678 22.6335 4.60825C22.5125 3.70814 22.2536 2.95027 21.6517 2.34835L20.591 3.40901C20.8678 3.68577 21.0482 4.07434 21.1469 4.80812C21.2484 5.56347 21.25 6.56458 21.25 8H22.75ZM8.00001 1.25C6.607 1.25 5.48679 1.24841 4.60826 1.36652C3.70815 1.48754 2.95028 1.74643 2.34836 2.34835L3.40902 3.40901C3.68578 3.13225 4.07436 2.9518 4.80813 2.85315C5.56348 2.75159 6.5646 2.75 8.00001 2.75V1.25ZM2.75001 8C2.75001 6.56458 2.7516 5.56347 2.85316 4.80812C2.95181 4.07434 3.13226 3.68577 3.40902 3.40901L2.34836 2.34835C1.74644 2.95027 1.48755 3.70814 1.36653 4.60825C1.24842 5.48678 1.25001 6.60699 1.25001 8H2.75001ZM7.96998 9.42999C8.16423 9.42999 8.41758 9.50843 8.65994 9.67298C8.90212 9.83741 9.07022 10.045 9.14362 10.2285L10.5363 9.67144C10.3297 9.15494 9.93784 8.72756 9.50253 8.43199C9.06739 8.13655 8.52573 7.92999 7.96998 7.92999V9.42999ZM9.14263 10.226L10.2826 13.106L11.6773 12.554L10.5373 9.67395L9.14263 10.226ZM10.2836 13.1085C10.3705 13.3258 10.4906 13.5436 10.6609 13.7187C10.8345 13.8971 11.1005 14.0675 11.445 14.0675C11.7895 14.0675 12.0554 13.8971 12.2291 13.7187C12.3994 13.5436 12.5194 13.3258 12.6063 13.1085L11.2136 12.5514C11.1705 12.6592 11.1418 12.6851 11.154 12.6726C11.1695 12.6566 11.268 12.5675 11.445 12.5675C11.622 12.5675 11.7204 12.6566 11.7359 12.6726C11.7481 12.6851 11.7194 12.6592 11.6763 12.5514L10.2836 13.1085ZM12.6077 13.105L14.8977 7.29501L13.5022 6.74497L11.2122 12.555L12.6077 13.105ZM14.898 7.29423C14.927 7.2206 14.9435 7.21451 14.9208 7.2368C14.8931 7.264 14.8089 7.32793 14.6722 7.33518C14.5359 7.34241 14.4463 7.28805 14.4169 7.26496C14.3927 7.24593 14.4101 7.25076 14.4468 7.32033L15.7731 6.61965C15.5895 6.27216 15.2066 5.80474 14.5928 5.83729C13.9766 5.86997 13.6463 6.37831 13.5019 6.74575L14.898 7.29423ZM14.4467 7.32013L15.4867 9.29013L16.8132 8.58984L15.7732 6.61984L14.4467 7.32013ZM15.4861 9.28883C15.7198 9.73367 16.1091 10.0928 16.5164 10.3385C16.9236 10.584 17.4213 10.76 17.92 10.76V9.25999C17.7586 9.25999 17.5264 9.19594 17.2911 9.054C17.0559 8.91216 16.8902 8.73631 16.8139 8.59114L15.4861 9.28883ZM21.9982 9.25L17.9181 9.25999L17.9218 10.76L22.0018 10.75L21.9982 9.25ZM2 9.42999H7.96998V7.92999H2V9.42999ZM11.25 17V22H12.75V17H11.25ZM8.00001 22.75H16V21.25H8.00001V22.75Z" fill="black"></path>
</svg>